#!OML:ASF H:\Terrain\Patient Classification 1\Walking\liu\liu.ASF
:FULLY-SPECIFIED
:DEGREES
65
root 8.03754 16.2434 -19.9956 7.34548 3.74311 4.28316
lowerback -3.76259 -1.72724 -6.87087
upperback -0.496443 -2.0335 0.754479
thorax 1.86552 -1.06803 4.52565
lowerneck -22.3984 -5.72265 -13.3278
upperneck 19.4771 -7.42127 15.7753
head 11.1715 -2.55485 6.86589
rclavicle 6.83322e-015 -6.36111e-015
rhumerus -55.4814 10.5971 -87.7336
rradius 32.6291
rwrist -17.3125
rhand -18.5017 -32.4068
rfingers 7.12502
rthumb 7.78616 -62.2434
lclavicle 6.83322e-015 -6.36111e-015
lhumerus -16.4831 -18.0468 89.266
lradius 45.3952
lwrist 19.3674
lhand -15.6175 -25.3667
lfingers 7.12502
lthumb 10.5691 4.34758
rfemur -41.8813 8.20146 11.1343
rtibia 29.0673
rfoot -22.1602 -7.91644
rtoes -22.5282
lfemur 12.1508 -0.0975959 -29.079
ltibia -2.8625e-014
lfoot -12.7617 5.18767
ltoes -4.57533
66
root 8.02554 16.2157 -19.7671 7.38946 3.72343 4.40852
lowerback -3.89581 -1.73503 -7.09387
upperback -0.46591 -2.02266 0.731483
thorax 1.97752 -1.06888 4.62393
lowerneck -22.2648 -5.66779 -13.5125
upperneck 19.3104 -7.32482 15.9685
head 11.0855 -2.51014 6.98334
rclavicle 4.33351e-014 0
rhumerus -55.8702 10.5228 -87.6421
rradius 32.6213
rwrist -17.5724
rhand -26.6819 -29.3804
rfingers 7.12502
rthumb -0.112902 -59.3601
lclavicle 4.33351e-014 0
lhumerus -15.8538 -18.3399 89.0894
lradius 45.9108
lwrist 19.3076
lhand -16.2687 -25.5176
lfingers 7.12502
lthumb 9.94096 4.22769
rfemur -42.8079 9.89389 9.83823
rtibia 28.2062
rfoot -22.8318 -10.0327
rtoes -29.7376
lfemur 13.0106 0.364396 -29.0116
ltibia -1.59028e-014
lfoot -12.9918 4.88227
ltoes -5.46816
67
root 8.01822 16.1916 -19.5307 7.46783 3.85731 4.58627
lowerback -4.07344 -1.78986 -7.3018
upperback -0.479416 -2.07181 0.687561
thorax 2.07555 -1.0979 4.68732
lowerneck -22.3882 -5.65268 -13.7578
upperneck 19.4279 -7.29826 16.2784
head 11.1741 -2.47707 7.16272
rclavicle 1.17531e-014 -1.43125e-014
rhumerus -56.1129 10.0522 -87.2068
rradius 32.2809
rwrist -17.3952
rhand -30.6336 -28.5727
rfingers 7.12502
rthumb -3.92936 -58.5162
lclavicle 1.17531e-014 -1.43125e-014
lhumerus -15.2388 -18.5036 88.9494
lradius 46.2184
lwrist 19.2233
lhand -16.1389 -25.6576
lfingers 7.12502
lthumb 10.0662 4.08163
rfemur -43.5878 10.9184 8.77323
rtibia 27.5857
rfoot -23.5602 -9.47495
rtoes -24.1889
lfemur 13.9315 0.659201 -28.9619
ltibia 9.54166e-015
lfoot -13.2675 4.36041
ltoes -5.55677
68
root 8.00751 16.1572 -19.2915 7.46128 3.92652 4.80971
lowerback -4.15668 -1.82016 -7.58932
upperback -0.526958 -2.09163 0.587263
thorax 2.08211 -1.10841 4.74167
lowerneck -22.4861 -5.6654 -13.6496
upperneck 19.6695 -7.3692 16.2637
head 11.2899 -2.49718 7.13889
rclavicle -1.39149e-014 -3.97569e-015
rhumerus -56.3244 9.4747 -86.8613
rradius 31.818
rwrist -16.8948
rhand -29.8607 -25.6325
rfingers 7.12502
rthumb -3.18296 -55.5885
lclavicle -1.39149e-014 -3.97569e-015
lhumerus -14.8218 -18.6334 88.7369
lradius 46.5526
lwrist 19.0976
lhand -15.7387 -25.6377
lfingers 7.12502
lthumb 10.4522 4.08243
rfemur -44.1507 11.7323 7.88356
rtibia 27.0891
rfoot -24.648 -9.20088
rtoes -19.3331
lfemur 14.8533 1.01352 -28.9057
ltibia -2.54444e-014
lfoot -13.3245 3.60573
ltoes -3.82776
69
root 7.99198 16.1179 -19.0548 7.17906 3.70785 5.08848
lowerback -3.96768 -1.79155 -8.06383
upperback -0.463382 -2.04491 0.520218
thorax 2.04989 -1.08939 4.94626
lowerneck -22.2404 -5.65289 -13.5309
upperneck 19.5443 -7.3571 16.072
head 11.179 -2.51453 7.03455
rclavicle -4.5472e-015 1.47101e-014
rhumerus -56.3248 9.23736 -86.7273
rradius 31.511
rwrist -16.4696
rhand -29.2773 -25.7129
rfingers 7.12502
rthumb -2.61951 -55.6766
lclavicle -4.5472e-015 1.47101e-014
lhumerus -14.4444 -18.671 88.5312
lradius 46.8448
lwrist 18.8434
lhand -15.6058 -25.82
lfingers 7.12502
lthumb 10.5804 3.89364
rfemur -44.2712 11.9598 7.59327
rtibia 26.7572
rfoot -24.705 -8.82
rtoes -17.9571
lfemur 15.9726 1.68555 -28.9523
ltibia -7.95139e-014
lfoot -13.1239 3.10251
ltoes -4.21349
70
root 7.98881 16.0924 -18.8104 7.21754 4.13637 5.11561
lowerback -4.1553 -1.98056 -8.06728
upperback -0.43405 -2.2797 0.586503
thorax 2.2231 -1.21458 4.99495
lowerneck -22.1742 -5.67829 -13.7322
upperneck 19.4828 -7.30685 16.0082
head 11.1389 -2.51774 7.0499
rclavicle -2.35808e-014 -1.59028e-015
rhumerus -56.2851 9.29782 -86.7622
rradius 31.3788
rwrist -16.1075
rhand -29.6845 -29.7799
rfingers 7.12502
rthumb -3.01278 -59.7384
lclavicle -2.35808e-014 -1.59028e-015
lhumerus -14.0397 -18.8276 88.4409
lradius 47.1013
lwrist 18.6248
lhand -15.6022 -25.9452
lfingers 7.12502
lthumb 10.5839 3.76831
rfemur -44.3727 11.4878 7.71737
rtibia 26.6378
rfoot -24.5592 -8.53869
rtoes -18.2073
lfemur 16.8345 1.70345 -28.6998
ltibia -3.49861e-014
lfoot -12.871 2.7453
ltoes -6.43128
71
root 7.97852 16.0568 -18.565 7.32874 4.12042 4.84463
lowerback -4.46458 -1.98014 -7.73654
upperback -0.482918 -2.2698 0.603547
thorax 2.33211 -1.20919 4.81872
lowerneck -22.5287 -5.68259 -13.6042
upperneck 19.8431 -7.33641 15.9276
head 11.3358 -2.51421 7.01079
rclavicle 1.22998e-014 2.46493e-014
rhumerus -56.2513 8.79664 -86.3001
rradius 30.6328
rwrist -15.7191
rhand -28.9939 -27.1748
rfingers 7.12502
rthumb -2.34586 -57.1417
lclavicle 1.22998e-014 2.46493e-014
lhumerus -13.8252 -19.2805 88.2432
lradius 47.3706
lwrist 18.4788
lhand -16.1222 -25.9662
lfingers 7.12502
lthumb 10.0823 3.7723
rfemur -44.6236 10.7425 8.63445
rtibia 26.7643
rfoot -23.9419 -7.79892
rtoes -19.244
lfemur 17.6735 2.1563 -28.1059
ltibia -2.54444e-014
lfoot -12.6331 2.17356
ltoes -8.66626
72
root 7.96447 16.0062 -18.3172 7.49954 3.93718 4.88451
lowerback -4.87658 -1.96199 -7.74621
upperback -0.516614 -2.20707 0.475943
thorax 2.5147 -1.18278 4.68394
lowerneck -22.8356 -5.65915 -13.3092
upperneck 20.198 -7.39802 15.8662
head 11.5232 -2.5113 6.94366
rclavicle 2.4699e-014 -1.70955e-014
rhumerus -56.346 8.61924 -86.4908
rradius 30.5833
rwrist -15.0218
rhand -29.1992 -29.0071
rfingers 7.12502
rthumb -2.54413 -58.9717
lclavicle 2.4699e-014 -1.70955e-014
lhumerus -13.647 -19.6181 87.9641
lradius 47.57
lwrist 18.2782
lhand -16.5907 -25.9189
lfingers 7.12502
lthumb 9.63026 3.84095
rfemur -44.8491 9.61942 9.56469
rtibia 27.1236
rfoot -22.8318 -6.85581
rtoes -20.3632
lfemur 18.4124 2.71881 -27.8036
ltibia 2.8625e-014
lfoot -12.1255 1.40489
ltoes -8.28691
73
root 7.95223 15.953 -18.0633 7.56618 3.79815 5.3218
lowerback -5.17747 -1.94185 -8.23889
upperback -0.54322 -2.12349 0.376861
thorax 2.65861 -1.15023 4.85631
lowerneck -22.7143 -5.68856 -13.418
upperneck 20.3686 -7.42489 15.8207
head 11.5701 -2.54161 6.94847
rclavicle -2.69602e-014 2.34566e-014
rhumerus -55.961 7.5785 -85.22
rradius 29.3891
rwrist -14.2894
rhand -27.9231 -22.9894
rfingers 7.12502
rthumb -1.31161 -52.9651
lclavicle -2.69602e-014 2.34566e-014
lhumerus -13.6361 -19.8325 88.0103
lradius 47.7848
lwrist 18.0225
lhand -16.1089 -26.0477
lfingers 7.12502
lthumb 10.0951 3.69015
rfemur -44.8728 8.23576 10.215
rtibia 27.7897
rfoot -21.781 -5.56113
rtoes -20.326
lfemur 19.2561 3.20778 -27.9228
ltibia -3.18055e-014
lfoot -11.6249 0.859763
ltoes -7.77861
74
root 7.94122 15.903 -17.811 7.52918 3.6299 5.56538
lowerback -5.28676 -1.93586 -8.5617
upperback -0.595163 -2.08938 0.411442
thorax 2.67371 -1.13589 5.0752
lowerneck -22.4868 -5.65123 -13.8639
upperneck 20.3822 -7.297 16.0223
head 11.5367 -2.50654 7.1319
rclavicle -7.0817e-015 -3.53837e-014
rhumerus -56.0981 7.92037 -85.5997
rradius 29.4167
rwrist -13.8208
rhand -29.3436 -27.2755
rfingers 7.12502
rthumb -2.6835 -57.2384
lclavicle -7.0817e-015 -3.53837e-014
lhumerus -13.8205 -19.6749 88.2309
lradius 47.9812
lwrist 17.5317
lhand -14.9609 -26.7097
lfingers 7.12502
lthumb 11.2025 2.97121
rfemur -44.8854 6.99325 11.0495
rtibia 28.8317
rfoot -20.724 -4.13134
rtoes -20.3537
lfemur 20.2349 3.75984 -27.8662
ltibia 6.36111e-015
lfoot -10.8942 0.691683
ltoes -9.13716
75
root 7.93134 15.8583 -17.553 7.41955 3.60462 5.50982
lowerback -5.34068 -2.02694 -8.53349
upperback -0.596807 -2.20874 0.46861
thorax 2.7217 -1.19733 5.10729
lowerneck -22.4475 -5.51033 -14.1371
upperneck 20.3259 -7.08162 16.3399
head 11.4957 -2.39733 7.34466
rclavicle 4.89259e-014 1.15295e-014
rhumerus -55.7735 7.86312 -85.3076
rradius 28.3689
rwrist -15.0558
rhand -30.0787 -22.0865
rfingers 7.12502
rthumb -3.39346 -52.0392
lclavicle 4.89259e-014 1.15295e-014
lhumerus -14.0204 -19.203 88.2423
lradius 48.0806
lwrist 16.7548
lhand -14.7305 -27.2315
lfingers 7.12502
lthumb 11.4246 2.43719
rfemur -44.8176 5.8657 12.1404
rtibia 30.1625
rfoot -18.8203 -3.11847
rtoes -22.0612
lfemur 21.3317 4.20684 -27.4722
ltibia -1.90833e-014
lfoot -9.76791 0.543023
ltoes -8.85436
76
root 7.92332 15.8252 -17.2855 7.24798 3.77626 5.44053
lowerback -5.41772 -2.13165 -8.3642
upperback -0.593535 -2.34865 0.397872
thorax 2.77988 -1.26694 4.92268
lowerneck -22.4371 -5.41609 -13.9356
upperneck 20.4284 -7.01783 16.2861
head 11.5095 -2.35826 7.30373
rclavicle 2.6662e-014 4.37326e-015
rhumerus -55.8065 8.41847 -86.5092
rradius 28.0593
rwrist -17.1774
rhand -33.1112 -21.9087
rfingers 7.12502
rthumb -6.32157 -51.7944
lclavicle 2.6662e-014 4.37326e-015
lhumerus -14.1779 -19.1184 88.0607
lradius 47.9569
lwrist 16.1876
lhand -15.1177 -27.3608
lfingers 7.12502
lthumb 11.0513 2.3283
rfemur -44.7003 4.84661 13.0576
rtibia 31.6682
rfoot -15.698 -2.73817
rtoes -22.6972
lfemur 22.4883 4.46676 -27.0482
ltibia 1.90833e-014
lfoot -8.85014 0.437391
ltoes -11.2452
